%TF.GenerationSoftware,KiCad,Pcbnew,9.0.3*%
%TF.CreationDate,2026-01-29T20:12:38-03:00*%
%TF.ProjectId,hackpad,6861636b-7061-4642-9e6b-696361645f70,rev?*%
%TF.SameCoordinates,Original*%
%TF.FileFunction,Soldermask,Bot*%
%TF.FilePolarity,Negative*%
%FSLAX46Y46*%
G04 Gerber Fmt 4.6, Leading zero omitted, Abs format (unit mm)*
G04 Created by KiCad (PCBNEW 9.0.3) date 2026-01-29 20:12:38*
%MOMM*%
%LPD*%
G01*
G04 APERTURE LIST*
G04 Aperture macros list*
%AMRoundRect*
0 Rectangle with rounded corners*
0 $1 Rounding radius*
0 $2 $3 $4 $5 $6 $7 $8 $9 X,Y pos of 4 corners*
0 Add a 4 corners polygon primitive as box body*
4,1,4,$2,$3,$4,$5,$6,$7,$8,$9,$2,$3,0*
0 Add four circle primitives for the rounded corners*
1,1,$1+$1,$2,$3*
1,1,$1+$1,$4,$5*
1,1,$1+$1,$6,$7*
1,1,$1+$1,$8,$9*
0 Add four rect primitives between the rounded corners*
20,1,$1+$1,$2,$3,$4,$5,0*
20,1,$1+$1,$4,$5,$6,$7,0*
20,1,$1+$1,$6,$7,$8,$9,0*
20,1,$1+$1,$8,$9,$2,$3,0*%
G04 Aperture macros list end*
%ADD10R,1.700000X1.700000*%
%ADD11O,1.700000X1.700000*%
%ADD12RoundRect,0.082000X-0.718000X0.328000X-0.718000X-0.328000X0.718000X-0.328000X0.718000X0.328000X0*%
%ADD13C,1.700000*%
%ADD14C,4.000000*%
%ADD15C,2.200000*%
%ADD16C,1.524000*%
G04 APERTURE END LIST*
D10*
%TO.C,J1*%
X169490000Y-79305000D03*
D11*
X169490000Y-81845000D03*
X169490000Y-84385000D03*
X169490000Y-86925000D03*
%TD*%
D12*
%TO.C,D1*%
X140050001Y-108747158D03*
X140050001Y-110247158D03*
X145250001Y-110247158D03*
X145250001Y-108747158D03*
%TD*%
D13*
%TO.C,SW4*%
X156355000Y-123965000D03*
D14*
X161435000Y-123965000D03*
D13*
X166515000Y-123965000D03*
D15*
X163975000Y-118885000D03*
X157625000Y-121425000D03*
%TD*%
D12*
%TO.C,D2*%
X159837501Y-108799958D03*
X159837501Y-110299958D03*
X165037501Y-110299958D03*
X165037501Y-108799958D03*
%TD*%
%TO.C,D6*%
X132075001Y-59474958D03*
X132075001Y-60974958D03*
X137275001Y-60974958D03*
X137275001Y-59474958D03*
%TD*%
%TO.C,D4*%
X159037501Y-128399958D03*
X159037501Y-129899958D03*
X164237501Y-129899958D03*
X164237501Y-128399958D03*
%TD*%
D13*
%TO.C,SW1*%
X137305000Y-104965000D03*
D14*
X142385000Y-104965000D03*
D13*
X147465000Y-104965000D03*
D15*
X144925000Y-99885000D03*
X138575000Y-102425000D03*
%TD*%
D12*
%TO.C,D5*%
X166550001Y-59549958D03*
X166550001Y-61049958D03*
X171750001Y-61049958D03*
X171750001Y-59549958D03*
%TD*%
D13*
%TO.C,SW3*%
X137290000Y-123995000D03*
D14*
X142370000Y-123995000D03*
D13*
X147450000Y-123995000D03*
D15*
X144910000Y-118915000D03*
X138560000Y-121455000D03*
%TD*%
D13*
%TO.C,SW2*%
X156355000Y-104965000D03*
D14*
X161435000Y-104965000D03*
D13*
X166515000Y-104965000D03*
D15*
X163975000Y-99885000D03*
X157625000Y-102425000D03*
%TD*%
D12*
%TO.C,D3*%
X140387501Y-128247158D03*
X140387501Y-129747158D03*
X145587501Y-129747158D03*
X145587501Y-128247158D03*
%TD*%
D16*
%TO.C,U1*%
X144330000Y-54048500D03*
X144330000Y-56588500D03*
X144330000Y-59128500D03*
X144330000Y-61668500D03*
X144330000Y-64208500D03*
X144330000Y-66748500D03*
X144330000Y-69288500D03*
X159570000Y-69288500D03*
X159570000Y-66748500D03*
X159570000Y-64208500D03*
X159570000Y-61668500D03*
X159570000Y-59128500D03*
X159570000Y-56588500D03*
X159570000Y-54048500D03*
%TD*%
M02*
