%TF.GenerationSoftware,KiCad,Pcbnew,9.0.3*%
%TF.CreationDate,2026-01-29T20:12:38-03:00*%
%TF.ProjectId,hackpad,6861636b-7061-4642-9e6b-696361645f70,rev?*%
%TF.SameCoordinates,Original*%
%TF.FileFunction,Legend,Top*%
%TF.FilePolarity,Positive*%
%FSLAX46Y46*%
G04 Gerber Fmt 4.6, Leading zero omitted, Abs format (unit mm)*
G04 Created by KiCad (PCBNEW 9.0.3) date 2026-01-29 20:12:38*
%MOMM*%
%LPD*%
G01*
G04 APERTURE LIST*
%ADD10C,0.100000*%
%ADD11C,0.150000*%
%ADD12C,0.200000*%
%ADD13C,0.101600*%
%ADD14C,0.040000*%
%ADD15C,0.120000*%
%ADD16C,0.127000*%
%ADD17C,0.504000*%
G04 APERTURE END LIST*
D10*
X147733646Y-63147419D02*
X148400312Y-64147419D01*
X148400312Y-63147419D02*
X147733646Y-64147419D01*
X148781265Y-64147419D02*
X148781265Y-63147419D01*
X149209836Y-63861704D02*
X149686026Y-63861704D01*
X149114598Y-64147419D02*
X149447931Y-63147419D01*
X149447931Y-63147419D02*
X149781264Y-64147419D01*
X150305074Y-63147419D02*
X150495550Y-63147419D01*
X150495550Y-63147419D02*
X150590788Y-63195038D01*
X150590788Y-63195038D02*
X150686026Y-63290276D01*
X150686026Y-63290276D02*
X150733645Y-63480752D01*
X150733645Y-63480752D02*
X150733645Y-63814085D01*
X150733645Y-63814085D02*
X150686026Y-64004561D01*
X150686026Y-64004561D02*
X150590788Y-64099800D01*
X150590788Y-64099800D02*
X150495550Y-64147419D01*
X150495550Y-64147419D02*
X150305074Y-64147419D01*
X150305074Y-64147419D02*
X150209836Y-64099800D01*
X150209836Y-64099800D02*
X150114598Y-64004561D01*
X150114598Y-64004561D02*
X150066979Y-63814085D01*
X150066979Y-63814085D02*
X150066979Y-63480752D01*
X150066979Y-63480752D02*
X150114598Y-63290276D01*
X150114598Y-63290276D02*
X150209836Y-63195038D01*
X150209836Y-63195038D02*
X150305074Y-63147419D01*
X151924122Y-64147419D02*
X151924122Y-63147419D01*
X151924122Y-63623609D02*
X152495550Y-63623609D01*
X152495550Y-64147419D02*
X152495550Y-63147419D01*
X152971741Y-63623609D02*
X153305074Y-63623609D01*
X153447931Y-64147419D02*
X152971741Y-64147419D01*
X152971741Y-64147419D02*
X152971741Y-63147419D01*
X152971741Y-63147419D02*
X153447931Y-63147419D01*
X154447931Y-64147419D02*
X154114598Y-63671228D01*
X153876503Y-64147419D02*
X153876503Y-63147419D01*
X153876503Y-63147419D02*
X154257455Y-63147419D01*
X154257455Y-63147419D02*
X154352693Y-63195038D01*
X154352693Y-63195038D02*
X154400312Y-63242657D01*
X154400312Y-63242657D02*
X154447931Y-63337895D01*
X154447931Y-63337895D02*
X154447931Y-63480752D01*
X154447931Y-63480752D02*
X154400312Y-63575990D01*
X154400312Y-63575990D02*
X154352693Y-63623609D01*
X154352693Y-63623609D02*
X154257455Y-63671228D01*
X154257455Y-63671228D02*
X153876503Y-63671228D01*
X154876503Y-63623609D02*
X155209836Y-63623609D01*
X155352693Y-64147419D02*
X154876503Y-64147419D01*
X154876503Y-64147419D02*
X154876503Y-63147419D01*
X154876503Y-63147419D02*
X155352693Y-63147419D01*
X155781265Y-64052180D02*
X155828884Y-64099800D01*
X155828884Y-64099800D02*
X155781265Y-64147419D01*
X155781265Y-64147419D02*
X155733646Y-64099800D01*
X155733646Y-64099800D02*
X155781265Y-64052180D01*
X155781265Y-64052180D02*
X155781265Y-64147419D01*
X155781265Y-63766466D02*
X155733646Y-63195038D01*
X155733646Y-63195038D02*
X155781265Y-63147419D01*
X155781265Y-63147419D02*
X155828884Y-63195038D01*
X155828884Y-63195038D02*
X155781265Y-63766466D01*
X155781265Y-63766466D02*
X155781265Y-63147419D01*
X128522931Y-52871371D02*
X128865789Y-52871371D01*
X128694360Y-53471371D02*
X128694360Y-52871371D01*
X129065789Y-53471371D02*
X129065789Y-52871371D01*
X129322932Y-53471371D02*
X129322932Y-53157085D01*
X129322932Y-53157085D02*
X129294360Y-53099942D01*
X129294360Y-53099942D02*
X129237217Y-53071371D01*
X129237217Y-53071371D02*
X129151503Y-53071371D01*
X129151503Y-53071371D02*
X129094360Y-53099942D01*
X129094360Y-53099942D02*
X129065789Y-53128514D01*
X129837217Y-53442800D02*
X129780074Y-53471371D01*
X129780074Y-53471371D02*
X129665789Y-53471371D01*
X129665789Y-53471371D02*
X129608646Y-53442800D01*
X129608646Y-53442800D02*
X129580074Y-53385657D01*
X129580074Y-53385657D02*
X129580074Y-53157085D01*
X129580074Y-53157085D02*
X129608646Y-53099942D01*
X129608646Y-53099942D02*
X129665789Y-53071371D01*
X129665789Y-53071371D02*
X129780074Y-53071371D01*
X129780074Y-53071371D02*
X129837217Y-53099942D01*
X129837217Y-53099942D02*
X129865789Y-53157085D01*
X129865789Y-53157085D02*
X129865789Y-53214228D01*
X129865789Y-53214228D02*
X129580074Y-53271371D01*
X130380075Y-53071371D02*
X130380075Y-53471371D01*
X130122932Y-53071371D02*
X130122932Y-53385657D01*
X130122932Y-53385657D02*
X130151503Y-53442800D01*
X130151503Y-53442800D02*
X130208646Y-53471371D01*
X130208646Y-53471371D02*
X130294360Y-53471371D01*
X130294360Y-53471371D02*
X130351503Y-53442800D01*
X130351503Y-53442800D02*
X130380075Y-53414228D01*
X130637217Y-53442800D02*
X130694360Y-53471371D01*
X130694360Y-53471371D02*
X130808646Y-53471371D01*
X130808646Y-53471371D02*
X130865789Y-53442800D01*
X130865789Y-53442800D02*
X130894360Y-53385657D01*
X130894360Y-53385657D02*
X130894360Y-53357085D01*
X130894360Y-53357085D02*
X130865789Y-53299942D01*
X130865789Y-53299942D02*
X130808646Y-53271371D01*
X130808646Y-53271371D02*
X130722932Y-53271371D01*
X130722932Y-53271371D02*
X130665789Y-53242800D01*
X130665789Y-53242800D02*
X130637217Y-53185657D01*
X130637217Y-53185657D02*
X130637217Y-53157085D01*
X130637217Y-53157085D02*
X130665789Y-53099942D01*
X130665789Y-53099942D02*
X130722932Y-53071371D01*
X130722932Y-53071371D02*
X130808646Y-53071371D01*
X130808646Y-53071371D02*
X130865789Y-53099942D01*
X131151503Y-53471371D02*
X131151503Y-52871371D01*
X131151503Y-53157085D02*
X131494360Y-53157085D01*
X131494360Y-53471371D02*
X131494360Y-52871371D01*
X132008645Y-53442800D02*
X131951502Y-53471371D01*
X131951502Y-53471371D02*
X131837217Y-53471371D01*
X131837217Y-53471371D02*
X131780074Y-53442800D01*
X131780074Y-53442800D02*
X131751502Y-53385657D01*
X131751502Y-53385657D02*
X131751502Y-53157085D01*
X131751502Y-53157085D02*
X131780074Y-53099942D01*
X131780074Y-53099942D02*
X131837217Y-53071371D01*
X131837217Y-53071371D02*
X131951502Y-53071371D01*
X131951502Y-53071371D02*
X132008645Y-53099942D01*
X132008645Y-53099942D02*
X132037217Y-53157085D01*
X132037217Y-53157085D02*
X132037217Y-53214228D01*
X132037217Y-53214228D02*
X131751502Y-53271371D01*
X132294360Y-53071371D02*
X132294360Y-53471371D01*
X132294360Y-53128514D02*
X132322931Y-53099942D01*
X132322931Y-53099942D02*
X132380074Y-53071371D01*
X132380074Y-53071371D02*
X132465788Y-53071371D01*
X132465788Y-53071371D02*
X132522931Y-53099942D01*
X132522931Y-53099942D02*
X132551503Y-53157085D01*
X132551503Y-53157085D02*
X132551503Y-53471371D01*
X132865788Y-52871371D02*
X132808645Y-52985657D01*
X133094359Y-53442800D02*
X133151502Y-53471371D01*
X133151502Y-53471371D02*
X133265788Y-53471371D01*
X133265788Y-53471371D02*
X133322931Y-53442800D01*
X133322931Y-53442800D02*
X133351502Y-53385657D01*
X133351502Y-53385657D02*
X133351502Y-53357085D01*
X133351502Y-53357085D02*
X133322931Y-53299942D01*
X133322931Y-53299942D02*
X133265788Y-53271371D01*
X133265788Y-53271371D02*
X133180074Y-53271371D01*
X133180074Y-53271371D02*
X133122931Y-53242800D01*
X133122931Y-53242800D02*
X133094359Y-53185657D01*
X133094359Y-53185657D02*
X133094359Y-53157085D01*
X133094359Y-53157085D02*
X133122931Y-53099942D01*
X133122931Y-53099942D02*
X133180074Y-53071371D01*
X133180074Y-53071371D02*
X133265788Y-53071371D01*
X133265788Y-53071371D02*
X133322931Y-53099942D01*
X134065788Y-53471371D02*
X134065788Y-52871371D01*
X134065788Y-53157085D02*
X134408645Y-53157085D01*
X134408645Y-53471371D02*
X134408645Y-52871371D01*
X134951502Y-53471371D02*
X134951502Y-53157085D01*
X134951502Y-53157085D02*
X134922930Y-53099942D01*
X134922930Y-53099942D02*
X134865787Y-53071371D01*
X134865787Y-53071371D02*
X134751502Y-53071371D01*
X134751502Y-53071371D02*
X134694359Y-53099942D01*
X134951502Y-53442800D02*
X134894359Y-53471371D01*
X134894359Y-53471371D02*
X134751502Y-53471371D01*
X134751502Y-53471371D02*
X134694359Y-53442800D01*
X134694359Y-53442800D02*
X134665787Y-53385657D01*
X134665787Y-53385657D02*
X134665787Y-53328514D01*
X134665787Y-53328514D02*
X134694359Y-53271371D01*
X134694359Y-53271371D02*
X134751502Y-53242800D01*
X134751502Y-53242800D02*
X134894359Y-53242800D01*
X134894359Y-53242800D02*
X134951502Y-53214228D01*
X135494359Y-53442800D02*
X135437216Y-53471371D01*
X135437216Y-53471371D02*
X135322930Y-53471371D01*
X135322930Y-53471371D02*
X135265787Y-53442800D01*
X135265787Y-53442800D02*
X135237216Y-53414228D01*
X135237216Y-53414228D02*
X135208644Y-53357085D01*
X135208644Y-53357085D02*
X135208644Y-53185657D01*
X135208644Y-53185657D02*
X135237216Y-53128514D01*
X135237216Y-53128514D02*
X135265787Y-53099942D01*
X135265787Y-53099942D02*
X135322930Y-53071371D01*
X135322930Y-53071371D02*
X135437216Y-53071371D01*
X135437216Y-53071371D02*
X135494359Y-53099942D01*
X135751502Y-53471371D02*
X135751502Y-52871371D01*
X135808645Y-53242800D02*
X135980073Y-53471371D01*
X135980073Y-53071371D02*
X135751502Y-53299942D01*
X136237216Y-53071371D02*
X136237216Y-53671371D01*
X136237216Y-53099942D02*
X136294359Y-53071371D01*
X136294359Y-53071371D02*
X136408644Y-53071371D01*
X136408644Y-53071371D02*
X136465787Y-53099942D01*
X136465787Y-53099942D02*
X136494359Y-53128514D01*
X136494359Y-53128514D02*
X136522930Y-53185657D01*
X136522930Y-53185657D02*
X136522930Y-53357085D01*
X136522930Y-53357085D02*
X136494359Y-53414228D01*
X136494359Y-53414228D02*
X136465787Y-53442800D01*
X136465787Y-53442800D02*
X136408644Y-53471371D01*
X136408644Y-53471371D02*
X136294359Y-53471371D01*
X136294359Y-53471371D02*
X136237216Y-53442800D01*
X137037216Y-53471371D02*
X137037216Y-53157085D01*
X137037216Y-53157085D02*
X137008644Y-53099942D01*
X137008644Y-53099942D02*
X136951501Y-53071371D01*
X136951501Y-53071371D02*
X136837216Y-53071371D01*
X136837216Y-53071371D02*
X136780073Y-53099942D01*
X137037216Y-53442800D02*
X136980073Y-53471371D01*
X136980073Y-53471371D02*
X136837216Y-53471371D01*
X136837216Y-53471371D02*
X136780073Y-53442800D01*
X136780073Y-53442800D02*
X136751501Y-53385657D01*
X136751501Y-53385657D02*
X136751501Y-53328514D01*
X136751501Y-53328514D02*
X136780073Y-53271371D01*
X136780073Y-53271371D02*
X136837216Y-53242800D01*
X136837216Y-53242800D02*
X136980073Y-53242800D01*
X136980073Y-53242800D02*
X137037216Y-53214228D01*
X137580073Y-53471371D02*
X137580073Y-52871371D01*
X137580073Y-53442800D02*
X137522930Y-53471371D01*
X137522930Y-53471371D02*
X137408644Y-53471371D01*
X137408644Y-53471371D02*
X137351501Y-53442800D01*
X137351501Y-53442800D02*
X137322930Y-53414228D01*
X137322930Y-53414228D02*
X137294358Y-53357085D01*
X137294358Y-53357085D02*
X137294358Y-53185657D01*
X137294358Y-53185657D02*
X137322930Y-53128514D01*
X137322930Y-53128514D02*
X137351501Y-53099942D01*
X137351501Y-53099942D02*
X137408644Y-53071371D01*
X137408644Y-53071371D02*
X137522930Y-53071371D01*
X137522930Y-53071371D02*
X137580073Y-53099942D01*
D11*
X134344819Y-83358333D02*
X135059104Y-83358333D01*
X135059104Y-83358333D02*
X135201961Y-83405952D01*
X135201961Y-83405952D02*
X135297200Y-83501190D01*
X135297200Y-83501190D02*
X135344819Y-83644047D01*
X135344819Y-83644047D02*
X135344819Y-83739285D01*
X135344819Y-82358333D02*
X135344819Y-82929761D01*
X135344819Y-82644047D02*
X134344819Y-82644047D01*
X134344819Y-82644047D02*
X134487676Y-82739285D01*
X134487676Y-82739285D02*
X134582914Y-82834523D01*
X134582914Y-82834523D02*
X134630533Y-82929761D01*
X167114878Y-79876428D02*
X167079164Y-79947857D01*
X167079164Y-79947857D02*
X167079164Y-80054999D01*
X167079164Y-80054999D02*
X167114878Y-80162142D01*
X167114878Y-80162142D02*
X167186307Y-80233571D01*
X167186307Y-80233571D02*
X167257735Y-80269285D01*
X167257735Y-80269285D02*
X167400592Y-80304999D01*
X167400592Y-80304999D02*
X167507735Y-80304999D01*
X167507735Y-80304999D02*
X167650592Y-80269285D01*
X167650592Y-80269285D02*
X167722021Y-80233571D01*
X167722021Y-80233571D02*
X167793450Y-80162142D01*
X167793450Y-80162142D02*
X167829164Y-80054999D01*
X167829164Y-80054999D02*
X167829164Y-79983571D01*
X167829164Y-79983571D02*
X167793450Y-79876428D01*
X167793450Y-79876428D02*
X167757735Y-79840714D01*
X167757735Y-79840714D02*
X167507735Y-79840714D01*
X167507735Y-79840714D02*
X167507735Y-79983571D01*
X167829164Y-79519285D02*
X167079164Y-79519285D01*
X167079164Y-79519285D02*
X167829164Y-79090714D01*
X167829164Y-79090714D02*
X167079164Y-79090714D01*
X167829164Y-78733571D02*
X167079164Y-78733571D01*
X167079164Y-78733571D02*
X167079164Y-78555000D01*
X167079164Y-78555000D02*
X167114878Y-78447857D01*
X167114878Y-78447857D02*
X167186307Y-78376428D01*
X167186307Y-78376428D02*
X167257735Y-78340714D01*
X167257735Y-78340714D02*
X167400592Y-78305000D01*
X167400592Y-78305000D02*
X167507735Y-78305000D01*
X167507735Y-78305000D02*
X167650592Y-78340714D01*
X167650592Y-78340714D02*
X167722021Y-78376428D01*
X167722021Y-78376428D02*
X167793450Y-78447857D01*
X167793450Y-78447857D02*
X167829164Y-78555000D01*
X167829164Y-78555000D02*
X167829164Y-78733571D01*
X167793450Y-87835713D02*
X167829164Y-87728571D01*
X167829164Y-87728571D02*
X167829164Y-87549999D01*
X167829164Y-87549999D02*
X167793450Y-87478571D01*
X167793450Y-87478571D02*
X167757735Y-87442856D01*
X167757735Y-87442856D02*
X167686307Y-87407142D01*
X167686307Y-87407142D02*
X167614878Y-87407142D01*
X167614878Y-87407142D02*
X167543450Y-87442856D01*
X167543450Y-87442856D02*
X167507735Y-87478571D01*
X167507735Y-87478571D02*
X167472021Y-87549999D01*
X167472021Y-87549999D02*
X167436307Y-87692856D01*
X167436307Y-87692856D02*
X167400592Y-87764285D01*
X167400592Y-87764285D02*
X167364878Y-87799999D01*
X167364878Y-87799999D02*
X167293450Y-87835713D01*
X167293450Y-87835713D02*
X167222021Y-87835713D01*
X167222021Y-87835713D02*
X167150592Y-87799999D01*
X167150592Y-87799999D02*
X167114878Y-87764285D01*
X167114878Y-87764285D02*
X167079164Y-87692856D01*
X167079164Y-87692856D02*
X167079164Y-87514285D01*
X167079164Y-87514285D02*
X167114878Y-87407142D01*
X167829164Y-87085713D02*
X167079164Y-87085713D01*
X167079164Y-87085713D02*
X167079164Y-86907142D01*
X167079164Y-86907142D02*
X167114878Y-86799999D01*
X167114878Y-86799999D02*
X167186307Y-86728570D01*
X167186307Y-86728570D02*
X167257735Y-86692856D01*
X167257735Y-86692856D02*
X167400592Y-86657142D01*
X167400592Y-86657142D02*
X167507735Y-86657142D01*
X167507735Y-86657142D02*
X167650592Y-86692856D01*
X167650592Y-86692856D02*
X167722021Y-86728570D01*
X167722021Y-86728570D02*
X167793450Y-86799999D01*
X167793450Y-86799999D02*
X167829164Y-86907142D01*
X167829164Y-86907142D02*
X167829164Y-87085713D01*
X167614878Y-86371427D02*
X167614878Y-86014285D01*
X167829164Y-86442856D02*
X167079164Y-86192856D01*
X167079164Y-86192856D02*
X167829164Y-85942856D01*
X167079164Y-82844999D02*
X167829164Y-82594999D01*
X167829164Y-82594999D02*
X167079164Y-82344999D01*
X167757735Y-81666428D02*
X167793450Y-81702142D01*
X167793450Y-81702142D02*
X167829164Y-81809285D01*
X167829164Y-81809285D02*
X167829164Y-81880713D01*
X167829164Y-81880713D02*
X167793450Y-81987856D01*
X167793450Y-81987856D02*
X167722021Y-82059285D01*
X167722021Y-82059285D02*
X167650592Y-82094999D01*
X167650592Y-82094999D02*
X167507735Y-82130713D01*
X167507735Y-82130713D02*
X167400592Y-82130713D01*
X167400592Y-82130713D02*
X167257735Y-82094999D01*
X167257735Y-82094999D02*
X167186307Y-82059285D01*
X167186307Y-82059285D02*
X167114878Y-81987856D01*
X167114878Y-81987856D02*
X167079164Y-81880713D01*
X167079164Y-81880713D02*
X167079164Y-81809285D01*
X167079164Y-81809285D02*
X167114878Y-81702142D01*
X167114878Y-81702142D02*
X167150592Y-81666428D01*
X167757735Y-80916428D02*
X167793450Y-80952142D01*
X167793450Y-80952142D02*
X167829164Y-81059285D01*
X167829164Y-81059285D02*
X167829164Y-81130713D01*
X167829164Y-81130713D02*
X167793450Y-81237856D01*
X167793450Y-81237856D02*
X167722021Y-81309285D01*
X167722021Y-81309285D02*
X167650592Y-81344999D01*
X167650592Y-81344999D02*
X167507735Y-81380713D01*
X167507735Y-81380713D02*
X167400592Y-81380713D01*
X167400592Y-81380713D02*
X167257735Y-81344999D01*
X167257735Y-81344999D02*
X167186307Y-81309285D01*
X167186307Y-81309285D02*
X167114878Y-81237856D01*
X167114878Y-81237856D02*
X167079164Y-81130713D01*
X167079164Y-81130713D02*
X167079164Y-81059285D01*
X167079164Y-81059285D02*
X167114878Y-80952142D01*
X167114878Y-80952142D02*
X167150592Y-80916428D01*
X148061428Y-82569819D02*
X148251904Y-82569819D01*
X148251904Y-82569819D02*
X148347142Y-82617438D01*
X148347142Y-82617438D02*
X148442380Y-82712676D01*
X148442380Y-82712676D02*
X148489999Y-82903152D01*
X148489999Y-82903152D02*
X148489999Y-83236485D01*
X148489999Y-83236485D02*
X148442380Y-83426961D01*
X148442380Y-83426961D02*
X148347142Y-83522200D01*
X148347142Y-83522200D02*
X148251904Y-83569819D01*
X148251904Y-83569819D02*
X148061428Y-83569819D01*
X148061428Y-83569819D02*
X147966190Y-83522200D01*
X147966190Y-83522200D02*
X147870952Y-83426961D01*
X147870952Y-83426961D02*
X147823333Y-83236485D01*
X147823333Y-83236485D02*
X147823333Y-82903152D01*
X147823333Y-82903152D02*
X147870952Y-82712676D01*
X147870952Y-82712676D02*
X147966190Y-82617438D01*
X147966190Y-82617438D02*
X148061428Y-82569819D01*
X149394761Y-83569819D02*
X148918571Y-83569819D01*
X148918571Y-83569819D02*
X148918571Y-82569819D01*
X149728095Y-83046009D02*
X150061428Y-83046009D01*
X150204285Y-83569819D02*
X149728095Y-83569819D01*
X149728095Y-83569819D02*
X149728095Y-82569819D01*
X149728095Y-82569819D02*
X150204285Y-82569819D01*
X150632857Y-83569819D02*
X150632857Y-82569819D01*
X150632857Y-82569819D02*
X150870952Y-82569819D01*
X150870952Y-82569819D02*
X151013809Y-82617438D01*
X151013809Y-82617438D02*
X151109047Y-82712676D01*
X151109047Y-82712676D02*
X151156666Y-82807914D01*
X151156666Y-82807914D02*
X151204285Y-82998390D01*
X151204285Y-82998390D02*
X151204285Y-83141247D01*
X151204285Y-83141247D02*
X151156666Y-83331723D01*
X151156666Y-83331723D02*
X151109047Y-83426961D01*
X151109047Y-83426961D02*
X151013809Y-83522200D01*
X151013809Y-83522200D02*
X150870952Y-83569819D01*
X150870952Y-83569819D02*
X150632857Y-83569819D01*
X152394762Y-83569819D02*
X152394762Y-82569819D01*
X152394762Y-82569819D02*
X152775714Y-82569819D01*
X152775714Y-82569819D02*
X152870952Y-82617438D01*
X152870952Y-82617438D02*
X152918571Y-82665057D01*
X152918571Y-82665057D02*
X152966190Y-82760295D01*
X152966190Y-82760295D02*
X152966190Y-82903152D01*
X152966190Y-82903152D02*
X152918571Y-82998390D01*
X152918571Y-82998390D02*
X152870952Y-83046009D01*
X152870952Y-83046009D02*
X152775714Y-83093628D01*
X152775714Y-83093628D02*
X152394762Y-83093628D01*
X153823333Y-83569819D02*
X153823333Y-83046009D01*
X153823333Y-83046009D02*
X153775714Y-82950771D01*
X153775714Y-82950771D02*
X153680476Y-82903152D01*
X153680476Y-82903152D02*
X153490000Y-82903152D01*
X153490000Y-82903152D02*
X153394762Y-82950771D01*
X153823333Y-83522200D02*
X153728095Y-83569819D01*
X153728095Y-83569819D02*
X153490000Y-83569819D01*
X153490000Y-83569819D02*
X153394762Y-83522200D01*
X153394762Y-83522200D02*
X153347143Y-83426961D01*
X153347143Y-83426961D02*
X153347143Y-83331723D01*
X153347143Y-83331723D02*
X153394762Y-83236485D01*
X153394762Y-83236485D02*
X153490000Y-83188866D01*
X153490000Y-83188866D02*
X153728095Y-83188866D01*
X153728095Y-83188866D02*
X153823333Y-83141247D01*
X154299524Y-82903152D02*
X154299524Y-83569819D01*
X154299524Y-82998390D02*
X154347143Y-82950771D01*
X154347143Y-82950771D02*
X154442381Y-82903152D01*
X154442381Y-82903152D02*
X154585238Y-82903152D01*
X154585238Y-82903152D02*
X154680476Y-82950771D01*
X154680476Y-82950771D02*
X154728095Y-83046009D01*
X154728095Y-83046009D02*
X154728095Y-83569819D01*
X155585238Y-83522200D02*
X155490000Y-83569819D01*
X155490000Y-83569819D02*
X155299524Y-83569819D01*
X155299524Y-83569819D02*
X155204286Y-83522200D01*
X155204286Y-83522200D02*
X155156667Y-83426961D01*
X155156667Y-83426961D02*
X155156667Y-83046009D01*
X155156667Y-83046009D02*
X155204286Y-82950771D01*
X155204286Y-82950771D02*
X155299524Y-82903152D01*
X155299524Y-82903152D02*
X155490000Y-82903152D01*
X155490000Y-82903152D02*
X155585238Y-82950771D01*
X155585238Y-82950771D02*
X155632857Y-83046009D01*
X155632857Y-83046009D02*
X155632857Y-83141247D01*
X155632857Y-83141247D02*
X155156667Y-83236485D01*
X156204286Y-83569819D02*
X156109048Y-83522200D01*
X156109048Y-83522200D02*
X156061429Y-83426961D01*
X156061429Y-83426961D02*
X156061429Y-82569819D01*
X167793450Y-85277856D02*
X167829164Y-85170714D01*
X167829164Y-85170714D02*
X167829164Y-84992142D01*
X167829164Y-84992142D02*
X167793450Y-84920714D01*
X167793450Y-84920714D02*
X167757735Y-84884999D01*
X167757735Y-84884999D02*
X167686307Y-84849285D01*
X167686307Y-84849285D02*
X167614878Y-84849285D01*
X167614878Y-84849285D02*
X167543450Y-84884999D01*
X167543450Y-84884999D02*
X167507735Y-84920714D01*
X167507735Y-84920714D02*
X167472021Y-84992142D01*
X167472021Y-84992142D02*
X167436307Y-85134999D01*
X167436307Y-85134999D02*
X167400592Y-85206428D01*
X167400592Y-85206428D02*
X167364878Y-85242142D01*
X167364878Y-85242142D02*
X167293450Y-85277856D01*
X167293450Y-85277856D02*
X167222021Y-85277856D01*
X167222021Y-85277856D02*
X167150592Y-85242142D01*
X167150592Y-85242142D02*
X167114878Y-85206428D01*
X167114878Y-85206428D02*
X167079164Y-85134999D01*
X167079164Y-85134999D02*
X167079164Y-84956428D01*
X167079164Y-84956428D02*
X167114878Y-84849285D01*
X167757735Y-84099285D02*
X167793450Y-84134999D01*
X167793450Y-84134999D02*
X167829164Y-84242142D01*
X167829164Y-84242142D02*
X167829164Y-84313570D01*
X167829164Y-84313570D02*
X167793450Y-84420713D01*
X167793450Y-84420713D02*
X167722021Y-84492142D01*
X167722021Y-84492142D02*
X167650592Y-84527856D01*
X167650592Y-84527856D02*
X167507735Y-84563570D01*
X167507735Y-84563570D02*
X167400592Y-84563570D01*
X167400592Y-84563570D02*
X167257735Y-84527856D01*
X167257735Y-84527856D02*
X167186307Y-84492142D01*
X167186307Y-84492142D02*
X167114878Y-84420713D01*
X167114878Y-84420713D02*
X167079164Y-84313570D01*
X167079164Y-84313570D02*
X167079164Y-84242142D01*
X167079164Y-84242142D02*
X167114878Y-84134999D01*
X167114878Y-84134999D02*
X167150592Y-84099285D01*
X167829164Y-83420713D02*
X167829164Y-83777856D01*
X167829164Y-83777856D02*
X167079164Y-83777856D01*
D12*
X148631905Y-112402219D02*
X148631905Y-111402219D01*
X148631905Y-111402219D02*
X148870000Y-111402219D01*
X148870000Y-111402219D02*
X149012857Y-111449838D01*
X149012857Y-111449838D02*
X149108095Y-111545076D01*
X149108095Y-111545076D02*
X149155714Y-111640314D01*
X149155714Y-111640314D02*
X149203333Y-111830790D01*
X149203333Y-111830790D02*
X149203333Y-111973647D01*
X149203333Y-111973647D02*
X149155714Y-112164123D01*
X149155714Y-112164123D02*
X149108095Y-112259361D01*
X149108095Y-112259361D02*
X149012857Y-112354600D01*
X149012857Y-112354600D02*
X148870000Y-112402219D01*
X148870000Y-112402219D02*
X148631905Y-112402219D01*
X150155714Y-112402219D02*
X149584286Y-112402219D01*
X149870000Y-112402219D02*
X149870000Y-111402219D01*
X149870000Y-111402219D02*
X149774762Y-111545076D01*
X149774762Y-111545076D02*
X149679524Y-111640314D01*
X149679524Y-111640314D02*
X149584286Y-111687933D01*
D11*
X160101667Y-116498200D02*
X160244524Y-116545819D01*
X160244524Y-116545819D02*
X160482619Y-116545819D01*
X160482619Y-116545819D02*
X160577857Y-116498200D01*
X160577857Y-116498200D02*
X160625476Y-116450580D01*
X160625476Y-116450580D02*
X160673095Y-116355342D01*
X160673095Y-116355342D02*
X160673095Y-116260104D01*
X160673095Y-116260104D02*
X160625476Y-116164866D01*
X160625476Y-116164866D02*
X160577857Y-116117247D01*
X160577857Y-116117247D02*
X160482619Y-116069628D01*
X160482619Y-116069628D02*
X160292143Y-116022009D01*
X160292143Y-116022009D02*
X160196905Y-115974390D01*
X160196905Y-115974390D02*
X160149286Y-115926771D01*
X160149286Y-115926771D02*
X160101667Y-115831533D01*
X160101667Y-115831533D02*
X160101667Y-115736295D01*
X160101667Y-115736295D02*
X160149286Y-115641057D01*
X160149286Y-115641057D02*
X160196905Y-115593438D01*
X160196905Y-115593438D02*
X160292143Y-115545819D01*
X160292143Y-115545819D02*
X160530238Y-115545819D01*
X160530238Y-115545819D02*
X160673095Y-115593438D01*
X161006429Y-115545819D02*
X161244524Y-116545819D01*
X161244524Y-116545819D02*
X161435000Y-115831533D01*
X161435000Y-115831533D02*
X161625476Y-116545819D01*
X161625476Y-116545819D02*
X161863572Y-115545819D01*
X162673095Y-115879152D02*
X162673095Y-116545819D01*
X162435000Y-115498200D02*
X162196905Y-116212485D01*
X162196905Y-116212485D02*
X162815952Y-116212485D01*
D12*
X167681906Y-112402177D02*
X167681906Y-111402177D01*
X167681906Y-111402177D02*
X167920001Y-111402177D01*
X167920001Y-111402177D02*
X168062858Y-111449796D01*
X168062858Y-111449796D02*
X168158096Y-111545034D01*
X168158096Y-111545034D02*
X168205715Y-111640272D01*
X168205715Y-111640272D02*
X168253334Y-111830748D01*
X168253334Y-111830748D02*
X168253334Y-111973605D01*
X168253334Y-111973605D02*
X168205715Y-112164081D01*
X168205715Y-112164081D02*
X168158096Y-112259319D01*
X168158096Y-112259319D02*
X168062858Y-112354558D01*
X168062858Y-112354558D02*
X167920001Y-112402177D01*
X167920001Y-112402177D02*
X167681906Y-112402177D01*
X168634287Y-111497415D02*
X168681906Y-111449796D01*
X168681906Y-111449796D02*
X168777144Y-111402177D01*
X168777144Y-111402177D02*
X169015239Y-111402177D01*
X169015239Y-111402177D02*
X169110477Y-111449796D01*
X169110477Y-111449796D02*
X169158096Y-111497415D01*
X169158096Y-111497415D02*
X169205715Y-111592653D01*
X169205715Y-111592653D02*
X169205715Y-111687891D01*
X169205715Y-111687891D02*
X169158096Y-111830748D01*
X169158096Y-111830748D02*
X168586668Y-112402177D01*
X168586668Y-112402177D02*
X169205715Y-112402177D01*
X134536905Y-57680019D02*
X134536905Y-56680019D01*
X134536905Y-56680019D02*
X134775000Y-56680019D01*
X134775000Y-56680019D02*
X134917857Y-56727638D01*
X134917857Y-56727638D02*
X135013095Y-56822876D01*
X135013095Y-56822876D02*
X135060714Y-56918114D01*
X135060714Y-56918114D02*
X135108333Y-57108590D01*
X135108333Y-57108590D02*
X135108333Y-57251447D01*
X135108333Y-57251447D02*
X135060714Y-57441923D01*
X135060714Y-57441923D02*
X135013095Y-57537161D01*
X135013095Y-57537161D02*
X134917857Y-57632400D01*
X134917857Y-57632400D02*
X134775000Y-57680019D01*
X134775000Y-57680019D02*
X134536905Y-57680019D01*
X135965476Y-56680019D02*
X135775000Y-56680019D01*
X135775000Y-56680019D02*
X135679762Y-56727638D01*
X135679762Y-56727638D02*
X135632143Y-56775257D01*
X135632143Y-56775257D02*
X135536905Y-56918114D01*
X135536905Y-56918114D02*
X135489286Y-57108590D01*
X135489286Y-57108590D02*
X135489286Y-57489542D01*
X135489286Y-57489542D02*
X135536905Y-57584780D01*
X135536905Y-57584780D02*
X135584524Y-57632400D01*
X135584524Y-57632400D02*
X135679762Y-57680019D01*
X135679762Y-57680019D02*
X135870238Y-57680019D01*
X135870238Y-57680019D02*
X135965476Y-57632400D01*
X135965476Y-57632400D02*
X136013095Y-57584780D01*
X136013095Y-57584780D02*
X136060714Y-57489542D01*
X136060714Y-57489542D02*
X136060714Y-57251447D01*
X136060714Y-57251447D02*
X136013095Y-57156209D01*
X136013095Y-57156209D02*
X135965476Y-57108590D01*
X135965476Y-57108590D02*
X135870238Y-57060971D01*
X135870238Y-57060971D02*
X135679762Y-57060971D01*
X135679762Y-57060971D02*
X135584524Y-57108590D01*
X135584524Y-57108590D02*
X135536905Y-57156209D01*
X135536905Y-57156209D02*
X135489286Y-57251447D01*
X167681906Y-131402177D02*
X167681906Y-130402177D01*
X167681906Y-130402177D02*
X167920001Y-130402177D01*
X167920001Y-130402177D02*
X168062858Y-130449796D01*
X168062858Y-130449796D02*
X168158096Y-130545034D01*
X168158096Y-130545034D02*
X168205715Y-130640272D01*
X168205715Y-130640272D02*
X168253334Y-130830748D01*
X168253334Y-130830748D02*
X168253334Y-130973605D01*
X168253334Y-130973605D02*
X168205715Y-131164081D01*
X168205715Y-131164081D02*
X168158096Y-131259319D01*
X168158096Y-131259319D02*
X168062858Y-131354558D01*
X168062858Y-131354558D02*
X167920001Y-131402177D01*
X167920001Y-131402177D02*
X167681906Y-131402177D01*
X169110477Y-130735510D02*
X169110477Y-131402177D01*
X168872382Y-130354558D02*
X168634287Y-131068843D01*
X168634287Y-131068843D02*
X169253334Y-131068843D01*
D11*
X141051667Y-97498200D02*
X141194524Y-97545819D01*
X141194524Y-97545819D02*
X141432619Y-97545819D01*
X141432619Y-97545819D02*
X141527857Y-97498200D01*
X141527857Y-97498200D02*
X141575476Y-97450580D01*
X141575476Y-97450580D02*
X141623095Y-97355342D01*
X141623095Y-97355342D02*
X141623095Y-97260104D01*
X141623095Y-97260104D02*
X141575476Y-97164866D01*
X141575476Y-97164866D02*
X141527857Y-97117247D01*
X141527857Y-97117247D02*
X141432619Y-97069628D01*
X141432619Y-97069628D02*
X141242143Y-97022009D01*
X141242143Y-97022009D02*
X141146905Y-96974390D01*
X141146905Y-96974390D02*
X141099286Y-96926771D01*
X141099286Y-96926771D02*
X141051667Y-96831533D01*
X141051667Y-96831533D02*
X141051667Y-96736295D01*
X141051667Y-96736295D02*
X141099286Y-96641057D01*
X141099286Y-96641057D02*
X141146905Y-96593438D01*
X141146905Y-96593438D02*
X141242143Y-96545819D01*
X141242143Y-96545819D02*
X141480238Y-96545819D01*
X141480238Y-96545819D02*
X141623095Y-96593438D01*
X141956429Y-96545819D02*
X142194524Y-97545819D01*
X142194524Y-97545819D02*
X142385000Y-96831533D01*
X142385000Y-96831533D02*
X142575476Y-97545819D01*
X142575476Y-97545819D02*
X142813572Y-96545819D01*
X143718333Y-97545819D02*
X143146905Y-97545819D01*
X143432619Y-97545819D02*
X143432619Y-96545819D01*
X143432619Y-96545819D02*
X143337381Y-96688676D01*
X143337381Y-96688676D02*
X143242143Y-96783914D01*
X143242143Y-96783914D02*
X143146905Y-96831533D01*
D12*
X169011905Y-57755019D02*
X169011905Y-56755019D01*
X169011905Y-56755019D02*
X169250000Y-56755019D01*
X169250000Y-56755019D02*
X169392857Y-56802638D01*
X169392857Y-56802638D02*
X169488095Y-56897876D01*
X169488095Y-56897876D02*
X169535714Y-56993114D01*
X169535714Y-56993114D02*
X169583333Y-57183590D01*
X169583333Y-57183590D02*
X169583333Y-57326447D01*
X169583333Y-57326447D02*
X169535714Y-57516923D01*
X169535714Y-57516923D02*
X169488095Y-57612161D01*
X169488095Y-57612161D02*
X169392857Y-57707400D01*
X169392857Y-57707400D02*
X169250000Y-57755019D01*
X169250000Y-57755019D02*
X169011905Y-57755019D01*
X170488095Y-56755019D02*
X170011905Y-56755019D01*
X170011905Y-56755019D02*
X169964286Y-57231209D01*
X169964286Y-57231209D02*
X170011905Y-57183590D01*
X170011905Y-57183590D02*
X170107143Y-57135971D01*
X170107143Y-57135971D02*
X170345238Y-57135971D01*
X170345238Y-57135971D02*
X170440476Y-57183590D01*
X170440476Y-57183590D02*
X170488095Y-57231209D01*
X170488095Y-57231209D02*
X170535714Y-57326447D01*
X170535714Y-57326447D02*
X170535714Y-57564542D01*
X170535714Y-57564542D02*
X170488095Y-57659780D01*
X170488095Y-57659780D02*
X170440476Y-57707400D01*
X170440476Y-57707400D02*
X170345238Y-57755019D01*
X170345238Y-57755019D02*
X170107143Y-57755019D01*
X170107143Y-57755019D02*
X170011905Y-57707400D01*
X170011905Y-57707400D02*
X169964286Y-57659780D01*
D11*
X141036667Y-116528200D02*
X141179524Y-116575819D01*
X141179524Y-116575819D02*
X141417619Y-116575819D01*
X141417619Y-116575819D02*
X141512857Y-116528200D01*
X141512857Y-116528200D02*
X141560476Y-116480580D01*
X141560476Y-116480580D02*
X141608095Y-116385342D01*
X141608095Y-116385342D02*
X141608095Y-116290104D01*
X141608095Y-116290104D02*
X141560476Y-116194866D01*
X141560476Y-116194866D02*
X141512857Y-116147247D01*
X141512857Y-116147247D02*
X141417619Y-116099628D01*
X141417619Y-116099628D02*
X141227143Y-116052009D01*
X141227143Y-116052009D02*
X141131905Y-116004390D01*
X141131905Y-116004390D02*
X141084286Y-115956771D01*
X141084286Y-115956771D02*
X141036667Y-115861533D01*
X141036667Y-115861533D02*
X141036667Y-115766295D01*
X141036667Y-115766295D02*
X141084286Y-115671057D01*
X141084286Y-115671057D02*
X141131905Y-115623438D01*
X141131905Y-115623438D02*
X141227143Y-115575819D01*
X141227143Y-115575819D02*
X141465238Y-115575819D01*
X141465238Y-115575819D02*
X141608095Y-115623438D01*
X141941429Y-115575819D02*
X142179524Y-116575819D01*
X142179524Y-116575819D02*
X142370000Y-115861533D01*
X142370000Y-115861533D02*
X142560476Y-116575819D01*
X142560476Y-116575819D02*
X142798572Y-115575819D01*
X143084286Y-115575819D02*
X143703333Y-115575819D01*
X143703333Y-115575819D02*
X143370000Y-115956771D01*
X143370000Y-115956771D02*
X143512857Y-115956771D01*
X143512857Y-115956771D02*
X143608095Y-116004390D01*
X143608095Y-116004390D02*
X143655714Y-116052009D01*
X143655714Y-116052009D02*
X143703333Y-116147247D01*
X143703333Y-116147247D02*
X143703333Y-116385342D01*
X143703333Y-116385342D02*
X143655714Y-116480580D01*
X143655714Y-116480580D02*
X143608095Y-116528200D01*
X143608095Y-116528200D02*
X143512857Y-116575819D01*
X143512857Y-116575819D02*
X143227143Y-116575819D01*
X143227143Y-116575819D02*
X143131905Y-116528200D01*
X143131905Y-116528200D02*
X143084286Y-116480580D01*
X160101667Y-97498200D02*
X160244524Y-97545819D01*
X160244524Y-97545819D02*
X160482619Y-97545819D01*
X160482619Y-97545819D02*
X160577857Y-97498200D01*
X160577857Y-97498200D02*
X160625476Y-97450580D01*
X160625476Y-97450580D02*
X160673095Y-97355342D01*
X160673095Y-97355342D02*
X160673095Y-97260104D01*
X160673095Y-97260104D02*
X160625476Y-97164866D01*
X160625476Y-97164866D02*
X160577857Y-97117247D01*
X160577857Y-97117247D02*
X160482619Y-97069628D01*
X160482619Y-97069628D02*
X160292143Y-97022009D01*
X160292143Y-97022009D02*
X160196905Y-96974390D01*
X160196905Y-96974390D02*
X160149286Y-96926771D01*
X160149286Y-96926771D02*
X160101667Y-96831533D01*
X160101667Y-96831533D02*
X160101667Y-96736295D01*
X160101667Y-96736295D02*
X160149286Y-96641057D01*
X160149286Y-96641057D02*
X160196905Y-96593438D01*
X160196905Y-96593438D02*
X160292143Y-96545819D01*
X160292143Y-96545819D02*
X160530238Y-96545819D01*
X160530238Y-96545819D02*
X160673095Y-96593438D01*
X161006429Y-96545819D02*
X161244524Y-97545819D01*
X161244524Y-97545819D02*
X161435000Y-96831533D01*
X161435000Y-96831533D02*
X161625476Y-97545819D01*
X161625476Y-97545819D02*
X161863572Y-96545819D01*
X162196905Y-96641057D02*
X162244524Y-96593438D01*
X162244524Y-96593438D02*
X162339762Y-96545819D01*
X162339762Y-96545819D02*
X162577857Y-96545819D01*
X162577857Y-96545819D02*
X162673095Y-96593438D01*
X162673095Y-96593438D02*
X162720714Y-96641057D01*
X162720714Y-96641057D02*
X162768333Y-96736295D01*
X162768333Y-96736295D02*
X162768333Y-96831533D01*
X162768333Y-96831533D02*
X162720714Y-96974390D01*
X162720714Y-96974390D02*
X162149286Y-97545819D01*
X162149286Y-97545819D02*
X162768333Y-97545819D01*
D12*
X148616906Y-131432219D02*
X148616906Y-130432219D01*
X148616906Y-130432219D02*
X148855001Y-130432219D01*
X148855001Y-130432219D02*
X148997858Y-130479838D01*
X148997858Y-130479838D02*
X149093096Y-130575076D01*
X149093096Y-130575076D02*
X149140715Y-130670314D01*
X149140715Y-130670314D02*
X149188334Y-130860790D01*
X149188334Y-130860790D02*
X149188334Y-131003647D01*
X149188334Y-131003647D02*
X149140715Y-131194123D01*
X149140715Y-131194123D02*
X149093096Y-131289361D01*
X149093096Y-131289361D02*
X148997858Y-131384600D01*
X148997858Y-131384600D02*
X148855001Y-131432219D01*
X148855001Y-131432219D02*
X148616906Y-131432219D01*
X149521668Y-130432219D02*
X150140715Y-130432219D01*
X150140715Y-130432219D02*
X149807382Y-130813171D01*
X149807382Y-130813171D02*
X149950239Y-130813171D01*
X149950239Y-130813171D02*
X150045477Y-130860790D01*
X150045477Y-130860790D02*
X150093096Y-130908409D01*
X150093096Y-130908409D02*
X150140715Y-131003647D01*
X150140715Y-131003647D02*
X150140715Y-131241742D01*
X150140715Y-131241742D02*
X150093096Y-131336980D01*
X150093096Y-131336980D02*
X150045477Y-131384600D01*
X150045477Y-131384600D02*
X149950239Y-131432219D01*
X149950239Y-131432219D02*
X149664525Y-131432219D01*
X149664525Y-131432219D02*
X149569287Y-131384600D01*
X149569287Y-131384600D02*
X149521668Y-131336980D01*
D13*
X142966190Y-49321979D02*
X142966190Y-49836026D01*
X142966190Y-49836026D02*
X142996428Y-49896502D01*
X142996428Y-49896502D02*
X143026666Y-49926741D01*
X143026666Y-49926741D02*
X143087142Y-49956979D01*
X143087142Y-49956979D02*
X143208095Y-49956979D01*
X143208095Y-49956979D02*
X143268571Y-49926741D01*
X143268571Y-49926741D02*
X143298809Y-49896502D01*
X143298809Y-49896502D02*
X143329047Y-49836026D01*
X143329047Y-49836026D02*
X143329047Y-49321979D01*
X143964047Y-49956979D02*
X143601190Y-49956979D01*
X143782618Y-49956979D02*
X143782618Y-49321979D01*
X143782618Y-49321979D02*
X143722142Y-49412693D01*
X143722142Y-49412693D02*
X143661666Y-49473169D01*
X143661666Y-49473169D02*
X143601190Y-49503407D01*
D14*
%TO.C,J1*%
X132990000Y-77115000D02*
X132990000Y-89115000D01*
X132990000Y-89115000D02*
X170990000Y-89115000D01*
X136490000Y-77115000D02*
X136490000Y-89115000D01*
X165990000Y-77115000D02*
X165990000Y-89115000D01*
X170990000Y-77115000D02*
X132990000Y-77115000D01*
X170990000Y-89115000D02*
X170990000Y-77115000D01*
D15*
%TO.C,SW4*%
X154450000Y-116980000D02*
X168420000Y-116980000D01*
X154450000Y-130950000D02*
X154450000Y-116980000D01*
X168420000Y-116980000D02*
X168420000Y-130950000D01*
X168420000Y-130950000D02*
X154450000Y-130950000D01*
%TO.C,SW1*%
X135400000Y-97980000D02*
X149370000Y-97980000D01*
X135400000Y-111950000D02*
X135400000Y-97980000D01*
X149370000Y-97980000D02*
X149370000Y-111950000D01*
X149370000Y-111950000D02*
X135400000Y-111950000D01*
%TO.C,SW3*%
X135385000Y-117010000D02*
X149355000Y-117010000D01*
X135385000Y-130980000D02*
X135385000Y-117010000D01*
X149355000Y-117010000D02*
X149355000Y-130980000D01*
X149355000Y-130980000D02*
X135385000Y-130980000D01*
%TO.C,SW2*%
X154450000Y-97980000D02*
X168420000Y-97980000D01*
X154450000Y-111950000D02*
X154450000Y-97980000D01*
X168420000Y-97980000D02*
X168420000Y-111950000D01*
X168420000Y-111950000D02*
X154450000Y-111950000D01*
D16*
%TO.C,U1*%
X143060000Y-70177500D02*
X143060000Y-53032500D01*
X144965000Y-72082500D02*
X158935000Y-72082500D01*
X147455000Y-51127500D02*
X147458728Y-50217228D01*
X147958728Y-49717500D02*
X155954000Y-49717500D01*
X156454000Y-50217500D02*
X156454000Y-51127500D01*
D10*
X158935000Y-51127500D02*
X144965000Y-51127500D01*
D16*
X158935000Y-51127500D02*
X144965000Y-51127500D01*
X160840000Y-70177500D02*
X160840000Y-53032500D01*
X143060000Y-53032500D02*
G75*
G02*
X144965000Y-51127500I1905001J-1D01*
G01*
X144965000Y-72082500D02*
G75*
G02*
X143060000Y-70177500I1J1905001D01*
G01*
X147458728Y-50217228D02*
G75*
G02*
X147958728Y-49717501I500018J-291D01*
G01*
X155954000Y-49717500D02*
G75*
G02*
X156454000Y-50217500I0J-500000D01*
G01*
X158935000Y-51127500D02*
G75*
G02*
X160840000Y-53032500I0J-1905000D01*
G01*
X160840000Y-70177500D02*
G75*
G02*
X158935000Y-72082500I-1905000J0D01*
G01*
D17*
X143252000Y-51368500D02*
G75*
G02*
X142748000Y-51368500I-252000J0D01*
G01*
X142748000Y-51368500D02*
G75*
G02*
X143252000Y-51368500I252000J0D01*
G01*
X144395000Y-52248500D02*
G75*
G02*
X143891000Y-52248500I-252000J0D01*
G01*
X143891000Y-52248500D02*
G75*
G02*
X144395000Y-52248500I252000J0D01*
G01*
%TD*%
M02*
