%TF.GenerationSoftware,KiCad,Pcbnew,9.0.3*%
%TF.CreationDate,2026-01-29T20:12:37-03:00*%
%TF.ProjectId,hackpad,6861636b-7061-4642-9e6b-696361645f70,rev?*%
%TF.SameCoordinates,Original*%
%TF.FileFunction,Copper,L2,Bot*%
%TF.FilePolarity,Positive*%
%FSLAX46Y46*%
G04 Gerber Fmt 4.6, Leading zero omitted, Abs format (unit mm)*
G04 Created by KiCad (PCBNEW 9.0.3) date 2026-01-29 20:12:37*
%MOMM*%
%LPD*%
G01*
G04 APERTURE LIST*
G04 Aperture macros list*
%AMRoundRect*
0 Rectangle with rounded corners*
0 $1 Rounding radius*
0 $2 $3 $4 $5 $6 $7 $8 $9 X,Y pos of 4 corners*
0 Add a 4 corners polygon primitive as box body*
4,1,4,$2,$3,$4,$5,$6,$7,$8,$9,$2,$3,0*
0 Add four circle primitives for the rounded corners*
1,1,$1+$1,$2,$3*
1,1,$1+$1,$4,$5*
1,1,$1+$1,$6,$7*
1,1,$1+$1,$8,$9*
0 Add four rect primitives between the rounded corners*
20,1,$1+$1,$2,$3,$4,$5,0*
20,1,$1+$1,$4,$5,$6,$7,0*
20,1,$1+$1,$6,$7,$8,$9,0*
20,1,$1+$1,$8,$9,$2,$3,0*%
G04 Aperture macros list end*
%TA.AperFunction,ComponentPad*%
%ADD10R,1.700000X1.700000*%
%TD*%
%TA.AperFunction,ComponentPad*%
%ADD11O,1.700000X1.700000*%
%TD*%
%TA.AperFunction,SMDPad,CuDef*%
%ADD12RoundRect,0.082000X-0.718000X0.328000X-0.718000X-0.328000X0.718000X-0.328000X0.718000X0.328000X0*%
%TD*%
%TA.AperFunction,ComponentPad*%
%ADD13C,2.200000*%
%TD*%
%TA.AperFunction,ComponentPad*%
%ADD14C,1.524000*%
%TD*%
%TA.AperFunction,ViaPad*%
%ADD15C,0.600000*%
%TD*%
%TA.AperFunction,Conductor*%
%ADD16C,0.200000*%
%TD*%
G04 APERTURE END LIST*
D10*
%TO.P,J1,1,Pin_1*%
%TO.N,GND*%
X169490000Y-79305000D03*
D11*
%TO.P,J1,2,Pin_2*%
%TO.N,3V3*%
X169490000Y-81845000D03*
%TO.P,J1,3,Pin_3*%
%TO.N,I2C_SCL*%
X169490000Y-84385000D03*
%TO.P,J1,4,Pin_4*%
%TO.N,I2C_SDA*%
X169490000Y-86925000D03*
%TD*%
D12*
%TO.P,D1,1,VDD*%
%TO.N,+5V*%
X140050001Y-108747158D03*
%TO.P,D1,2,DOUT*%
%TO.N,Net-(D1-DOUT)*%
X140050001Y-110247158D03*
%TO.P,D1,3,VSS*%
%TO.N,GND*%
X145250001Y-110247158D03*
%TO.P,D1,4,DIN*%
%TO.N,Net-(D1-DIN)*%
X145250001Y-108747158D03*
%TD*%
D13*
%TO.P,SW4,1,1*%
%TO.N,GND*%
X163975000Y-118885000D03*
%TO.P,SW4,2,2*%
%TO.N,Net-(U1-GPIO3{slash}MOSI)*%
X157625000Y-121425000D03*
%TD*%
D12*
%TO.P,D2,1,VDD*%
%TO.N,+5V*%
X159837501Y-108799958D03*
%TO.P,D2,2,DOUT*%
%TO.N,Net-(D2-DOUT)*%
X159837501Y-110299958D03*
%TO.P,D2,3,VSS*%
%TO.N,GND*%
X165037501Y-110299958D03*
%TO.P,D2,4,DIN*%
%TO.N,Net-(D1-DOUT)*%
X165037501Y-108799958D03*
%TD*%
%TO.P,D6,1,VDD*%
%TO.N,+5V*%
X132075001Y-59474958D03*
%TO.P,D6,2,DOUT*%
%TO.N,unconnected-(D6-DOUT-Pad2)*%
X132075001Y-60974958D03*
%TO.P,D6,3,VSS*%
%TO.N,GND*%
X137275001Y-60974958D03*
%TO.P,D6,4,DIN*%
%TO.N,Net-(D5-DOUT)*%
X137275001Y-59474958D03*
%TD*%
%TO.P,D4,1,VDD*%
%TO.N,+5V*%
X159037501Y-128399958D03*
%TO.P,D4,2,DOUT*%
%TO.N,Net-(D4-DOUT)*%
X159037501Y-129899958D03*
%TO.P,D4,3,VSS*%
%TO.N,GND*%
X164237501Y-129899958D03*
%TO.P,D4,4,DIN*%
%TO.N,Net-(D3-DOUT)*%
X164237501Y-128399958D03*
%TD*%
D13*
%TO.P,SW1,1,1*%
%TO.N,GND*%
X144925000Y-99885000D03*
%TO.P,SW1,2,2*%
%TO.N,Net-(U1-GPIO1{slash}RX)*%
X138575000Y-102425000D03*
%TD*%
D12*
%TO.P,D5,1,VDD*%
%TO.N,+5V*%
X166550001Y-59549958D03*
%TO.P,D5,2,DOUT*%
%TO.N,Net-(D5-DOUT)*%
X166550001Y-61049958D03*
%TO.P,D5,3,VSS*%
%TO.N,GND*%
X171750001Y-61049958D03*
%TO.P,D5,4,DIN*%
%TO.N,Net-(D4-DOUT)*%
X171750001Y-59549958D03*
%TD*%
D13*
%TO.P,SW3,1,1*%
%TO.N,GND*%
X144910000Y-118915000D03*
%TO.P,SW3,2,2*%
%TO.N,Net-(U1-GPIO4{slash}MISO)*%
X138560000Y-121455000D03*
%TD*%
%TO.P,SW2,1,1*%
%TO.N,GND*%
X163975000Y-99885000D03*
%TO.P,SW2,2,2*%
%TO.N,Net-(U1-GPIO2{slash}SCK)*%
X157625000Y-102425000D03*
%TD*%
D12*
%TO.P,D3,1,VDD*%
%TO.N,+5V*%
X140387501Y-128247158D03*
%TO.P,D3,2,DOUT*%
%TO.N,Net-(D3-DOUT)*%
X140387501Y-129747158D03*
%TO.P,D3,3,VSS*%
%TO.N,GND*%
X145587501Y-129747158D03*
%TO.P,D3,4,DIN*%
%TO.N,Net-(D2-DOUT)*%
X145587501Y-128247158D03*
%TD*%
D14*
%TO.P,U1,1,GPIO26/ADC0/A0*%
%TO.N,unconnected-(U1-GPIO26{slash}ADC0{slash}A0-Pad1)*%
X144330000Y-54048500D03*
%TO.P,U1,2,GPIO27/ADC1/A1*%
%TO.N,unconnected-(U1-GPIO27{slash}ADC1{slash}A1-Pad2)_1*%
X144330000Y-56588500D03*
%TO.P,U1,3,GPIO28/ADC2/A2*%
%TO.N,unconnected-(U1-GPIO28{slash}ADC2{slash}A2-Pad3)_1*%
X144330000Y-59128500D03*
%TO.P,U1,4,GPIO29/ADC3/A3*%
%TO.N,unconnected-(U1-GPIO29{slash}ADC3{slash}A3-Pad4)_1*%
X144330000Y-61668500D03*
%TO.P,U1,5,GPIO6/SDA*%
%TO.N,I2C_SDA*%
X144330000Y-64208500D03*
%TO.P,U1,6,GPIO7/SCL*%
%TO.N,I2C_SCL*%
X144330000Y-66748500D03*
%TO.P,U1,7,GPIO0/TX*%
%TO.N,Net-(D1-DIN)*%
X144330000Y-69288500D03*
%TO.P,U1,8,GPIO1/RX*%
%TO.N,Net-(U1-GPIO1{slash}RX)*%
X159570000Y-69288500D03*
%TO.P,U1,9,GPIO2/SCK*%
%TO.N,Net-(U1-GPIO2{slash}SCK)*%
X159570000Y-66748500D03*
%TO.P,U1,10,GPIO4/MISO*%
%TO.N,Net-(U1-GPIO4{slash}MISO)*%
X159570000Y-64208500D03*
%TO.P,U1,11,GPIO3/MOSI*%
%TO.N,Net-(U1-GPIO3{slash}MOSI)*%
X159570000Y-61668500D03*
%TO.P,U1,12,3V3*%
%TO.N,3V3*%
X159570000Y-59128500D03*
%TO.P,U1,13,GND*%
%TO.N,GND*%
X159570000Y-56588500D03*
%TO.P,U1,14,VBUS*%
%TO.N,+5V*%
X159570000Y-54048500D03*
%TD*%
D15*
%TO.N,Net-(U1-GPIO4{slash}MISO)*%
X143094800Y-71940400D03*
%TO.N,Net-(U1-GPIO1{slash}RX)*%
X142499500Y-70835200D03*
%TO.N,I2C_SDA*%
X148659000Y-84859700D03*
%TO.N,Net-(D4-DOUT)*%
X171349300Y-58527000D03*
X171788600Y-128994200D03*
%TO.N,Net-(D2-DOUT)*%
X151550200Y-127318100D03*
X151796900Y-111587200D03*
%TO.N,Net-(D1-DIN)*%
X142876600Y-101878700D03*
%TO.N,+5V*%
X153907100Y-108800000D03*
%TO.N,GND*%
X168996600Y-62736100D03*
X145538000Y-131721000D03*
X166244800Y-128994200D03*
%TD*%
D16*
%TO.N,Net-(U1-GPIO4{slash}MISO)*%
X143094800Y-72145400D02*
X143094800Y-71940400D01*
X143063900Y-72176300D02*
X143094800Y-72145400D01*
X142973500Y-72176300D02*
X143063900Y-72176300D01*
X141888700Y-71091500D02*
X142973500Y-72176300D01*
X141888700Y-70188300D02*
X141888700Y-71091500D01*
X144058500Y-68018500D02*
X141888700Y-70188300D01*
X155760000Y-68018500D02*
X144058500Y-68018500D01*
X159570000Y-64208500D02*
X155760000Y-68018500D01*
%TO.N,Net-(U1-GPIO1{slash}RX)*%
X158023300Y-70835200D02*
X159570000Y-69288500D01*
X142499500Y-70835200D02*
X158023300Y-70835200D01*
%TO.N,I2C_SCL*%
X154614200Y-84385000D02*
X169490000Y-84385000D01*
X141487000Y-71257800D02*
X154614200Y-84385000D01*
X141487000Y-69591500D02*
X141487000Y-71257800D01*
X144330000Y-66748500D02*
X141487000Y-69591500D01*
%TO.N,I2C_SDA*%
X166273000Y-84859700D02*
X168338300Y-86925000D01*
X148659000Y-84859700D02*
X166273000Y-84859700D01*
X169490000Y-86925000D02*
X168338300Y-86925000D01*
%TO.N,Net-(D5-DOUT)*%
X142744500Y-59475000D02*
X137275000Y-59475000D01*
X143668000Y-60398500D02*
X142744500Y-59475000D01*
X165898500Y-60398500D02*
X143668000Y-60398500D01*
X166550000Y-61050000D02*
X165898500Y-60398500D01*
%TO.N,Net-(D4-DOUT)*%
X171750000Y-58927700D02*
X171349300Y-58527000D01*
X171750000Y-59550000D02*
X171750000Y-58927700D01*
X159037500Y-130194800D02*
X159037500Y-129900000D01*
X159953300Y-131110600D02*
X159037500Y-130194800D01*
X169672200Y-131110600D02*
X159953300Y-131110600D01*
X171788600Y-128994200D02*
X169672200Y-131110600D01*
%TO.N,Net-(D3-DOUT)*%
X140387500Y-129993600D02*
X140387500Y-129747200D01*
X142722700Y-132328800D02*
X140387500Y-129993600D01*
X169371000Y-132328800D02*
X142722700Y-132328800D01*
X172401200Y-129298600D02*
X169371000Y-132328800D01*
X172401200Y-128746700D02*
X172401200Y-129298600D01*
X171986400Y-128331900D02*
X172401200Y-128746700D01*
X164305600Y-128331900D02*
X171986400Y-128331900D01*
X164237500Y-128400000D02*
X164305600Y-128331900D01*
%TO.N,Net-(D2-DOUT)*%
X150621100Y-128247200D02*
X145587500Y-128247200D01*
X151550200Y-127318100D02*
X150621100Y-128247200D01*
X158550300Y-111587200D02*
X159837500Y-110300000D01*
X151796900Y-111587200D02*
X158550300Y-111587200D01*
%TO.N,Net-(D1-DIN)*%
X142990600Y-101878700D02*
X142876600Y-101878700D01*
X145250000Y-104138100D02*
X142990600Y-101878700D01*
X145250000Y-108747200D02*
X145250000Y-104138100D01*
%TO.N,+5V*%
X153907100Y-108800000D02*
X159837500Y-108800000D01*
X133602300Y-57710400D02*
X158495100Y-57710400D01*
X132075000Y-59237700D02*
X133602300Y-57710400D01*
X132075000Y-59475000D02*
X132075000Y-59237700D01*
X158495100Y-55123400D02*
X158495100Y-57710400D01*
X159570000Y-54048500D02*
X158495100Y-55123400D01*
X164710400Y-57710400D02*
X166550000Y-59550000D01*
X158495100Y-57710400D02*
X164710400Y-57710400D01*
X157353900Y-126716400D02*
X140684200Y-126716400D01*
X159037500Y-128400000D02*
X157353900Y-126716400D01*
X140387500Y-127013100D02*
X140387500Y-128247200D01*
X140684200Y-126716400D02*
X140387500Y-127013100D01*
X153006400Y-108800000D02*
X153907100Y-108800000D01*
X148804200Y-113002200D02*
X153006400Y-108800000D01*
X141171600Y-113002200D02*
X148804200Y-113002200D01*
X141171600Y-121268000D02*
X141171600Y-113002200D01*
X139787900Y-122651700D02*
X141171600Y-121268000D01*
X139787900Y-125820100D02*
X139787900Y-122651700D01*
X140684200Y-126716400D02*
X139787900Y-125820100D01*
X138944100Y-110774700D02*
X141171600Y-113002200D01*
X138944100Y-109764000D02*
X138944100Y-110774700D01*
X139960900Y-108747200D02*
X138944100Y-109764000D01*
X140050000Y-108747200D02*
X139960900Y-108747200D01*
%TO.N,Net-(D1-DOUT)*%
X140050000Y-110496400D02*
X140050000Y-110247200D01*
X140987300Y-111433700D02*
X140050000Y-110496400D01*
X141223500Y-111433700D02*
X140987300Y-111433700D01*
X141226500Y-111436700D02*
X141223500Y-111433700D01*
X149322300Y-111436700D02*
X141226500Y-111436700D01*
X153614200Y-107144800D02*
X149322300Y-111436700D01*
X156223700Y-107144800D02*
X153614200Y-107144800D01*
X157970300Y-105398200D02*
X156223700Y-107144800D01*
X157970300Y-104818000D02*
X157970300Y-105398200D01*
X160381500Y-102406800D02*
X157970300Y-104818000D01*
X162486900Y-102406800D02*
X160381500Y-102406800D01*
X165037500Y-104957400D02*
X162486900Y-102406800D01*
X165037500Y-108800000D02*
X165037500Y-104957400D01*
%TO.N,GND*%
X144925000Y-99885000D02*
X163975000Y-99885000D01*
X146014300Y-100974300D02*
X144925000Y-99885000D01*
X146014300Y-107604800D02*
X146014300Y-100974300D01*
X146383200Y-107973700D02*
X146014300Y-107604800D01*
X146383200Y-109203100D02*
X146383200Y-107973700D01*
X145339100Y-110247200D02*
X146383200Y-109203100D01*
X145250000Y-110247200D02*
X145339100Y-110247200D01*
X170436900Y-56588500D02*
X159570000Y-56588500D01*
X172906000Y-59057600D02*
X170436900Y-56588500D01*
X172906000Y-59994500D02*
X172906000Y-59057600D01*
X171850500Y-61050000D02*
X172906000Y-59994500D01*
X171750000Y-61050000D02*
X171850500Y-61050000D01*
X165037500Y-117822500D02*
X165037500Y-110300000D01*
X163975000Y-118885000D02*
X165037500Y-117822500D01*
X139036100Y-62736100D02*
X137275000Y-60975000D01*
X168996600Y-62736100D02*
X139036100Y-62736100D01*
X170303700Y-62736100D02*
X168996600Y-62736100D01*
X171750000Y-61289800D02*
X170303700Y-62736100D01*
X171750000Y-61050000D02*
X171750000Y-61289800D01*
X144940000Y-118885000D02*
X163975000Y-118885000D01*
X144910000Y-118915000D02*
X144940000Y-118885000D01*
X165339000Y-129900000D02*
X164237500Y-129900000D01*
X166244800Y-128994200D02*
X165339000Y-129900000D01*
X145587500Y-131671500D02*
X145538000Y-131721000D01*
X145587500Y-129747200D02*
X145587500Y-131671500D01*
%TD*%
M02*
