%TF.GenerationSoftware,KiCad,Pcbnew,9.0.3*%
%TF.CreationDate,2026-01-29T20:12:38-03:00*%
%TF.ProjectId,hackpad,6861636b-7061-4642-9e6b-696361645f70,rev?*%
%TF.SameCoordinates,Original*%
%TF.FileFunction,Legend,Bot*%
%TF.FilePolarity,Positive*%
%FSLAX46Y46*%
G04 Gerber Fmt 4.6, Leading zero omitted, Abs format (unit mm)*
G04 Created by KiCad (PCBNEW 9.0.3) date 2026-01-29 20:12:38*
%MOMM*%
%LPD*%
G01*
G04 APERTURE LIST*
%ADD10C,0.100000*%
G04 APERTURE END LIST*
D10*
%TO.C,D1*%
X146850001Y-111397158D02*
X145950001Y-111397158D01*
X146850001Y-110497158D01*
X146850001Y-111397158D01*
G36*
X146850001Y-111397158D02*
G01*
X145950001Y-111397158D01*
X146850001Y-110497158D01*
X146850001Y-111397158D01*
G37*
%TO.C,D2*%
X166637501Y-111449958D02*
X165737501Y-111449958D01*
X166637501Y-110549958D01*
X166637501Y-111449958D01*
G36*
X166637501Y-111449958D02*
G01*
X165737501Y-111449958D01*
X166637501Y-110549958D01*
X166637501Y-111449958D01*
G37*
%TO.C,D6*%
X138875001Y-62124958D02*
X137975001Y-62124958D01*
X138875001Y-61224958D01*
X138875001Y-62124958D01*
G36*
X138875001Y-62124958D02*
G01*
X137975001Y-62124958D01*
X138875001Y-61224958D01*
X138875001Y-62124958D01*
G37*
%TO.C,D4*%
X165837501Y-131049958D02*
X164937501Y-131049958D01*
X165837501Y-130149958D01*
X165837501Y-131049958D01*
G36*
X165837501Y-131049958D02*
G01*
X164937501Y-131049958D01*
X165837501Y-130149958D01*
X165837501Y-131049958D01*
G37*
%TO.C,D5*%
X173350001Y-62199958D02*
X172450001Y-62199958D01*
X173350001Y-61299958D01*
X173350001Y-62199958D01*
G36*
X173350001Y-62199958D02*
G01*
X172450001Y-62199958D01*
X173350001Y-61299958D01*
X173350001Y-62199958D01*
G37*
%TO.C,D3*%
X147187501Y-130897158D02*
X146287501Y-130897158D01*
X147187501Y-129997158D01*
X147187501Y-130897158D01*
G36*
X147187501Y-130897158D02*
G01*
X146287501Y-130897158D01*
X147187501Y-129997158D01*
X147187501Y-130897158D01*
G37*
%TD*%
M02*
