%TF.GenerationSoftware,KiCad,Pcbnew,9.0.3*%
%TF.CreationDate,2026-01-29T20:12:37-03:00*%
%TF.ProjectId,hackpad,6861636b-7061-4642-9e6b-696361645f70,rev?*%
%TF.SameCoordinates,Original*%
%TF.FileFunction,Copper,L1,Top*%
%TF.FilePolarity,Positive*%
%FSLAX46Y46*%
G04 Gerber Fmt 4.6, Leading zero omitted, Abs format (unit mm)*
G04 Created by KiCad (PCBNEW 9.0.3) date 2026-01-29 20:12:37*
%MOMM*%
%LPD*%
G01*
G04 APERTURE LIST*
G04 Aperture macros list*
%AMRoundRect*
0 Rectangle with rounded corners*
0 $1 Rounding radius*
0 $2 $3 $4 $5 $6 $7 $8 $9 X,Y pos of 4 corners*
0 Add a 4 corners polygon primitive as box body*
4,1,4,$2,$3,$4,$5,$6,$7,$8,$9,$2,$3,0*
0 Add four circle primitives for the rounded corners*
1,1,$1+$1,$2,$3*
1,1,$1+$1,$4,$5*
1,1,$1+$1,$6,$7*
1,1,$1+$1,$8,$9*
0 Add four rect primitives between the rounded corners*
20,1,$1+$1,$2,$3,$4,$5,0*
20,1,$1+$1,$4,$5,$6,$7,0*
20,1,$1+$1,$6,$7,$8,$9,0*
20,1,$1+$1,$8,$9,$2,$3,0*%
G04 Aperture macros list end*
%TA.AperFunction,ComponentPad*%
%ADD10R,1.700000X1.700000*%
%TD*%
%TA.AperFunction,ComponentPad*%
%ADD11O,1.700000X1.700000*%
%TD*%
%TA.AperFunction,ComponentPad*%
%ADD12C,2.200000*%
%TD*%
%TA.AperFunction,SMDPad,CuDef*%
%ADD13RoundRect,0.152400X1.063600X0.609600X-1.063600X0.609600X-1.063600X-0.609600X1.063600X-0.609600X0*%
%TD*%
%TA.AperFunction,ComponentPad*%
%ADD14C,1.524000*%
%TD*%
%TA.AperFunction,SMDPad,CuDef*%
%ADD15RoundRect,0.152400X-1.063600X-0.609600X1.063600X-0.609600X1.063600X0.609600X-1.063600X0.609600X0*%
%TD*%
%TA.AperFunction,ViaPad*%
%ADD16C,0.600000*%
%TD*%
%TA.AperFunction,Conductor*%
%ADD17C,0.200000*%
%TD*%
G04 APERTURE END LIST*
D10*
%TO.P,J1,1,Pin_1*%
%TO.N,GND*%
X169490000Y-79305000D03*
D11*
%TO.P,J1,2,Pin_2*%
%TO.N,3V3*%
X169490000Y-81845000D03*
%TO.P,J1,3,Pin_3*%
%TO.N,I2C_SCL*%
X169490000Y-84385000D03*
%TO.P,J1,4,Pin_4*%
%TO.N,I2C_SDA*%
X169490000Y-86925000D03*
%TD*%
D12*
%TO.P,SW4,1,1*%
%TO.N,GND*%
X163975000Y-118885000D03*
%TO.P,SW4,2,2*%
%TO.N,Net-(U1-GPIO3{slash}MOSI)*%
X157625000Y-121425000D03*
%TD*%
%TO.P,SW1,1,1*%
%TO.N,GND*%
X144925000Y-99885000D03*
%TO.P,SW1,2,2*%
%TO.N,Net-(U1-GPIO1{slash}RX)*%
X138575000Y-102425000D03*
%TD*%
%TO.P,SW3,1,1*%
%TO.N,GND*%
X144910000Y-118915000D03*
%TO.P,SW3,2,2*%
%TO.N,Net-(U1-GPIO4{slash}MISO)*%
X138560000Y-121455000D03*
%TD*%
%TO.P,SW2,1,1*%
%TO.N,GND*%
X163975000Y-99885000D03*
%TO.P,SW2,2,2*%
%TO.N,Net-(U1-GPIO2{slash}SCK)*%
X157625000Y-102425000D03*
%TD*%
D13*
%TO.P,U1,1,GPIO26/ADC0/A0*%
%TO.N,unconnected-(U1-GPIO26{slash}ADC0{slash}A0-Pad1)_1*%
X143495000Y-54048500D03*
D14*
%TO.N,unconnected-(U1-GPIO26{slash}ADC0{slash}A0-Pad1)*%
X144330000Y-54048500D03*
D13*
%TO.P,U1,2,GPIO27/ADC1/A1*%
%TO.N,unconnected-(U1-GPIO27{slash}ADC1{slash}A1-Pad2)*%
X143495000Y-56588500D03*
D14*
%TO.N,unconnected-(U1-GPIO27{slash}ADC1{slash}A1-Pad2)_1*%
X144330000Y-56588500D03*
D13*
%TO.P,U1,3,GPIO28/ADC2/A2*%
%TO.N,unconnected-(U1-GPIO28{slash}ADC2{slash}A2-Pad3)*%
X143495000Y-59128500D03*
D14*
%TO.N,unconnected-(U1-GPIO28{slash}ADC2{slash}A2-Pad3)_1*%
X144330000Y-59128500D03*
D13*
%TO.P,U1,4,GPIO29/ADC3/A3*%
%TO.N,unconnected-(U1-GPIO29{slash}ADC3{slash}A3-Pad4)*%
X143495000Y-61668500D03*
D14*
%TO.N,unconnected-(U1-GPIO29{slash}ADC3{slash}A3-Pad4)_1*%
X144330000Y-61668500D03*
D13*
%TO.P,U1,5,GPIO6/SDA*%
%TO.N,I2C_SDA*%
X143495000Y-64208500D03*
D14*
X144330000Y-64208500D03*
D13*
%TO.P,U1,6,GPIO7/SCL*%
%TO.N,I2C_SCL*%
X143495000Y-66748500D03*
D14*
X144330000Y-66748500D03*
D13*
%TO.P,U1,7,GPIO0/TX*%
%TO.N,Net-(D1-DIN)*%
X143495000Y-69288500D03*
D14*
X144330000Y-69288500D03*
%TO.P,U1,8,GPIO1/RX*%
%TO.N,Net-(U1-GPIO1{slash}RX)*%
X159570000Y-69288500D03*
D15*
X160405000Y-69288500D03*
D14*
%TO.P,U1,9,GPIO2/SCK*%
%TO.N,Net-(U1-GPIO2{slash}SCK)*%
X159570000Y-66748500D03*
D15*
X160405000Y-66748500D03*
D14*
%TO.P,U1,10,GPIO4/MISO*%
%TO.N,Net-(U1-GPIO4{slash}MISO)*%
X159570000Y-64208500D03*
D15*
X160405000Y-64208500D03*
D14*
%TO.P,U1,11,GPIO3/MOSI*%
%TO.N,Net-(U1-GPIO3{slash}MOSI)*%
X159570000Y-61668500D03*
D15*
X160405000Y-61668500D03*
D14*
%TO.P,U1,12,3V3*%
%TO.N,3V3*%
X159570000Y-59128500D03*
D15*
X160405000Y-59128500D03*
D14*
%TO.P,U1,13,GND*%
%TO.N,GND*%
X159570000Y-56588500D03*
D15*
X160405000Y-56588500D03*
D14*
%TO.P,U1,14,VBUS*%
%TO.N,+5V*%
X159570000Y-54048500D03*
D15*
X160405000Y-54048500D03*
%TD*%
D16*
%TO.N,Net-(U1-GPIO4{slash}MISO)*%
X143094800Y-71940400D03*
%TO.N,Net-(U1-GPIO1{slash}RX)*%
X142499500Y-70835200D03*
%TO.N,I2C_SDA*%
X148659000Y-84859700D03*
%TO.N,Net-(D4-DOUT)*%
X171349300Y-58527000D03*
X171788600Y-128994200D03*
%TO.N,Net-(D2-DOUT)*%
X151550200Y-127318100D03*
X151796900Y-111587200D03*
%TO.N,Net-(D1-DIN)*%
X142876600Y-101878700D03*
%TO.N,+5V*%
X153907100Y-108800000D03*
%TO.N,GND*%
X168996600Y-62736100D03*
X145538000Y-131721000D03*
X166244800Y-128994200D03*
%TD*%
D17*
%TO.N,Net-(U1-GPIO3{slash}MOSI)*%
X160405000Y-61668500D02*
X159570000Y-61668500D01*
X154918300Y-118718300D02*
X157625000Y-121425000D01*
X154918300Y-66320200D02*
X154918300Y-118718300D01*
X159570000Y-61668500D02*
X154918300Y-66320200D01*
%TO.N,Net-(U1-GPIO4{slash}MISO)*%
X159570000Y-64208500D02*
X160405000Y-64208500D01*
X139790200Y-120224800D02*
X138560000Y-121455000D01*
X139790200Y-103634400D02*
X139790200Y-120224800D01*
X143094800Y-100329800D02*
X139790200Y-103634400D01*
X143094800Y-71940400D02*
X143094800Y-100329800D01*
%TO.N,Net-(U1-GPIO2{slash}SCK)*%
X157625000Y-68693500D02*
X159570000Y-66748500D01*
X157625000Y-102425000D02*
X157625000Y-68693500D01*
X159570000Y-66748500D02*
X160405000Y-66748500D01*
%TO.N,Net-(U1-GPIO1{slash}RX)*%
X160405000Y-69288500D02*
X159570000Y-69288500D01*
X138575000Y-74759700D02*
X138575000Y-102425000D01*
X142499500Y-70835200D02*
X138575000Y-74759700D01*
%TO.N,3V3*%
X159570000Y-59128500D02*
X160405000Y-59128500D01*
X169490000Y-81845000D02*
X169490000Y-80693300D01*
X168698000Y-80693300D02*
X169490000Y-80693300D01*
X168171900Y-80167200D02*
X168698000Y-80693300D01*
X168171900Y-66895400D02*
X168171900Y-80167200D01*
X160405000Y-59128500D02*
X168171900Y-66895400D01*
%TO.N,I2C_SCL*%
X144330000Y-66748500D02*
X143495000Y-66748500D01*
%TO.N,I2C_SDA*%
X144330000Y-64208500D02*
X143495000Y-64208500D01*
X148659000Y-68537500D02*
X148659000Y-84859700D01*
X144330000Y-64208500D02*
X148659000Y-68537500D01*
%TO.N,Net-(D4-DOUT)*%
X171349300Y-128554900D02*
X171788600Y-128994200D01*
X171349300Y-58527000D02*
X171349300Y-128554900D01*
%TO.N,Net-(D2-DOUT)*%
X151796900Y-127071400D02*
X151796900Y-111587200D01*
X151550200Y-127318100D02*
X151796900Y-127071400D01*
%TO.N,Net-(D1-DIN)*%
X143495000Y-69288500D02*
X144330000Y-69288500D01*
X143698400Y-69491900D02*
X143495000Y-69288500D01*
X143698400Y-72187700D02*
X143698400Y-69491900D01*
X143496500Y-72389600D02*
X143698400Y-72187700D01*
X143496500Y-101258800D02*
X143496500Y-72389600D01*
X142876600Y-101878700D02*
X143496500Y-101258800D01*
%TO.N,+5V*%
X160405000Y-54048500D02*
X159570000Y-54048500D01*
X153907100Y-59711400D02*
X159570000Y-54048500D01*
X153907100Y-108800000D02*
X153907100Y-59711400D01*
%TO.N,GND*%
X144979100Y-118845900D02*
X144910000Y-118915000D01*
X144979100Y-99939100D02*
X144979100Y-118845900D01*
X144925000Y-99885000D02*
X144979100Y-99939100D01*
X160405000Y-56588500D02*
X159570000Y-56588500D01*
X163975000Y-88236100D02*
X163975000Y-99885000D01*
X169096100Y-83115000D02*
X163975000Y-88236100D01*
X169894100Y-83115000D02*
X169096100Y-83115000D01*
X170676200Y-82332900D02*
X169894100Y-83115000D01*
X170676200Y-80491200D02*
X170676200Y-82332900D01*
X169490000Y-79305000D02*
X170676200Y-80491200D01*
X169490000Y-79305000D02*
X169490000Y-78153300D01*
X168996600Y-77659900D02*
X168996600Y-62736100D01*
X169490000Y-78153300D02*
X168996600Y-77659900D01*
X164874200Y-127623600D02*
X166244800Y-128994200D01*
X164874200Y-119784200D02*
X164874200Y-127623600D01*
X163975000Y-118885000D02*
X164874200Y-119784200D01*
X145538000Y-119543000D02*
X144910000Y-118915000D01*
X145538000Y-131721000D02*
X145538000Y-119543000D01*
%TD*%
M02*
